<svg xmlns="http://www.w3.org/2000/svg" width="181" height="181" viewBox="0 0 181 181"><defs><filter id="a" width="102.5%" height="102.5%" x="-1.2%" y="-1.3%" filterUnits="objectBoundingBox"><feOffset dy="2" in="SourceAlpha" result="shadowOffsetOuter1"/><feGaussianBlur in="shadowOffsetOuter1" result="shadowBlurOuter1" stdDeviation="2"/><feColorMatrix in="shadowBlurOuter1" result="shadowMatrixOuter1" values="0 0 0 0 0 0 0 0 0 0 0 0 0 0 0 0 0 0 0.5 0"/><feMerge><feMergeNode in="shadowMatrixOuter1"/><feMergeNode in="SourceGraphic"/></feMerge></filter></defs><g fill="none" fill-rule="evenodd" filter="url(#a)" transform="translate(-360 -42)"><g fill-rule="nonzero" transform="translate(342)"><rect width="220" height="220"/><path fill="#FCFCF9" stroke="#FFF" stroke-linecap="round" stroke-linejoin="round" stroke-width="8" d="M120.827715,57 C136.827715,77 142.827715,102 136.827715,129 C136.408852,130.926768 135.947882,132.818448 135.445393,134.676214 C129.981848,139.099911 125.081641,144.226815 120.827715,150 C118.43675,153.260406 116.329259,156.662548 114.505242,160.185889 C113.15082,156.997983 111.553459,153.931838 109.72106,151 C105.970812,145.609018 97.1847696,138.322033 87.0915034,131.079711 C87.1555014,127.778662 87.4002412,124.419787 87.8277146,121 C90.8277146,95 102.827715,74 120.827715,57 Z"/><path stroke="#FFF" stroke-linecap="round" stroke-linejoin="round" stroke-width="8" d="M180.827715,116 C188.827715,142 182.827715,164 167.827715,178 C154.79156,189.406635 138.43624,196.83027 119.302618,200.270906 C121.264916,185.638819 119.560219,172.064958 114.506565,160.185131 C116.329545,156.662088 118.436912,153.260185 120.827715,150 C134.827715,131 155.827715,119 180.827715,116 Z"/><path stroke="#FFF" stroke-linecap="round" stroke-linejoin="round" stroke-width="8" d="M109.72106,151 C119.72106,167 122.72106,187 117.72106,209 C89.7210604,207 66.7210604,197 49.7210604,180 C34.9802394,165.259179 32.3767863,132.278462 40.6602733,103.718771 C41.367859,101.279168 98.4177568,134.751501 109.72106,151 Z"/></g><g fill-rule="nonzero" stroke="#6C707E" stroke-linecap="round" stroke-linejoin="round" stroke-width="14" transform="translate(378 11)"><path fill="#6C707E" d="M84.8277146,46 C100.827715,66 106.827715,91 100.827715,118 C100.408852,119.926768 99.9478821,121.818448 99.4453933,123.676214 C93.9818481,128.099911 89.0816405,133.226815 84.8277146,139 C82.4367503,142.260406 80.3292593,145.662548 78.5052415,149.185889 C77.1508197,145.997983 75.553459,142.931838 73.7210604,140 C69.9708122,134.609018 61.1847696,127.322033 51.0915034,120.079711 C51.1555014,116.778662 51.4002412,113.419787 51.8277146,110 C54.8277146,84 66.8277146,63 84.8277146,46 Z"/><path d="M144.827715,105 C152.827715,131 146.827715,153 131.827715,167 C118.79156,178.406635 102.43624,185.83027 83.3026177,189.270906 C85.2649164,174.638819 83.5602188,161.064958 78.5065648,149.185131 C80.3295445,145.662088 82.4369121,142.260185 84.8277146,139 C98.8277146,120 119.827715,108 144.827715,105 Z"/><path d="M73.7210604,140 C83.7210604,156 86.7210604,176 81.7210604,198 C53.7210604,196 30.7210604,186 13.7210604,169 C-1.0197606,154.259179 -3.62321366,121.278462 4.66027333,92.7187715 C5.36785895,90.2791677 62.4177568,123.751501 73.7210604,140 Z"/></g></g></svg>